<svg width="24" height="24" viewBox="0 0 24 24" fill="none" xmlns="http://www.w3.org/2000/svg">
<rect width="24" height="24" rx="12" fill="white"/>
<path d="M18 8.76923L16.375 7.82656M18 8.76923V10.3846M18 8.76923L16.375 9.7119M5 8.76923L6.625 7.82656M5 8.76923L6.625 9.7119M5 8.76923V10.3846M11.5 12.5385L13.125 11.5958M11.5 12.5385L9.875 11.5958M11.5 12.5385V14.1538M11.5 19L13.125 18.0573M11.5 19V17.3846M11.5 19L9.875 18.0573M9.875 5.94195L11.5 5L13.125 5.94267M18 13.6154V15.2308L16.375 16.1734M6.625 16.1734L5 15.2308V13.6154" stroke="black" stroke-width="1.3" stroke-linecap="round" stroke-linejoin="round"/>
</svg>
